<?xml version="1.0" ?><svg viewBox="0 0 500 500" xmlns="http://www.w3.org/2000/svg"><defs><style>.cls-1,.cls-7{fill:#1e1e1e;}.cls-1,.cls-10,.cls-11,.cls-12,.cls-13,.cls-14,.cls-17,.cls-2,.cls-20,.cls-21,.cls-5,.cls-8,.cls-9{stroke:#000;stroke-miterlimit:10;}.cls-1,.cls-10,.cls-11,.cls-12,.cls-13,.cls-17,.cls-2,.cls-20,.cls-5{stroke-width:5px;}.cls-2,.cls-23{fill:#e4e5e7;}.cls-3{fill:#b7b7b5;}.cls-4{fill:#dedfda;}.cls-5{fill:#444;}.cls-6{opacity:0.1;}.cls-8{fill:#595757;}.cls-14,.cls-8,.cls-9{stroke-width:2.5px;}.cls-9{fill:#3e3a39;}.cls-10{fill:#f7d500;}.cls-11{fill:#c21f1b;}.cls-12{fill:#479d23;}.cls-13{fill:#0081c8;}.cls-14,.cls-17,.cls-21{fill:none;}.cls-15{fill:#fff;}.cls-16{fill:#231815;}.cls-18{fill:#e96c02;}.cls-19{fill:#c7c8ca;}.cls-20{fill:#2d2b2b;}.cls-22{fill:#df5b00;}</style></defs><title/><g data-name="图层 1" id="图层_1"><path class="cls-1" d="M351,172.4a9.93,9.93,0,0,0-5.68-5.53l-32.55-12.31a20.42,20.42,0,0,0-16.71,1L287.68,160H212.32L204,155.58a20.42,20.42,0,0,0-16.71-1l-32.55,12.31A9.93,9.93,0,0,0,149,172.4l-2.53,6.19v34.35h207V178.6Z"/><path class="cls-2" d="M360.11,184.52a11.25,11.25,0,0,0-6.63-5.92l-38.33-12.83a15.56,15.56,0,0,0-16.66,4.52l-19.94,22.85a6.56,6.56,0,0,1-4.94,2.25H226.39a6.56,6.56,0,0,1-4.94-2.25L201.5,170.29a15.56,15.56,0,0,0-16.66-4.52L146.51,178.6a11.25,11.25,0,0,0-6.62,5.92c-11.67,25-66.2,148.77-9.9,162a10.22,10.22,0,0,0,9.54-2.75l40.54-40.54a18.82,18.82,0,0,1,13.31-5.51H306.62a18.82,18.82,0,0,1,13.31,5.51l40.54,40.54a10.22,10.22,0,0,0,9.54,2.75C426.32,333.28,371.79,209.55,360.11,184.52Z"/><path class="cls-3" d="M300.41,186.44l2.65,4.58a3,3,0,0,1,0,3l-2.65,4.58a3,3,0,0,1-2.57,1.48h-5.29a3,3,0,0,1-2.57-1.48L287.33,194a3,3,0,0,1,0-3l2.65-4.58a3,3,0,0,1,2.57-1.48h5.29A3,3,0,0,1,300.41,186.44Z"/><path class="cls-4" d="M315.74,195.62l2.65,4.58a3,3,0,0,1,0,3l-2.65,4.58a3,3,0,0,1-2.57,1.48h-5.29a3,3,0,0,1-2.57-1.48l-2.65-4.58a3,3,0,0,1,0-3l2.65-4.58a3,3,0,0,1,2.57-1.48h5.29A3,3,0,0,1,315.74,195.62Z"/><path class="cls-3" d="M300.41,204.79l2.65,4.58a3,3,0,0,1,0,3l-2.65,4.58a3,3,0,0,1-2.57,1.48h-5.29a3,3,0,0,1-2.57-1.48l-2.65-4.58a3,3,0,0,1,0-3l2.65-4.58a3,3,0,0,1,2.57-1.48h5.29A3,3,0,0,1,300.41,204.79Z"/><path class="cls-3" d="M285.07,214l2.65,4.58a3,3,0,0,1,0,3l-2.65,4.58a3,3,0,0,1-2.57,1.48h-5.29a3,3,0,0,1-2.57-1.48L272,221.52a3,3,0,0,1,0-3l2.65-4.58a3,3,0,0,1,2.57-1.48h5.29A3,3,0,0,1,285.07,214Z"/><path class="cls-4" d="M315.74,213.86l2.65,4.58a3,3,0,0,1,0,3L315.74,226a3,3,0,0,1-2.57,1.48h-5.29a3,3,0,0,1-2.57-1.48l-2.65-4.58a3,3,0,0,1,0-3l2.65-4.58a3,3,0,0,1,2.57-1.48h5.29A3,3,0,0,1,315.74,213.86Z"/><path class="cls-3" d="M331.08,204.79l2.65,4.58a3,3,0,0,1,0,3l-2.65,4.58a3,3,0,0,1-2.57,1.48h-5.29a3,3,0,0,1-2.57-1.48L318,212.34a3,3,0,0,1,0-3l2.65-4.58a3,3,0,0,1,2.57-1.48h5.29A3,3,0,0,1,331.08,204.79Z"/><path class="cls-4" d="M331.08,223l2.65,4.58a3,3,0,0,1,0,3l-2.65,4.58a3,3,0,0,1-2.57,1.48h-5.29a3,3,0,0,1-2.57-1.48L318,230.58a3,3,0,0,1,0-3l2.65-4.58a3,3,0,0,1,2.57-1.48h5.29A3,3,0,0,1,331.08,223Z"/><path class="cls-4" d="M331.08,241.27l2.65,4.58a3,3,0,0,1,0,3l-2.65,4.58a3,3,0,0,1-2.57,1.48h-5.29a3,3,0,0,1-2.57-1.48L318,248.82a3,3,0,0,1,0-3l2.65-4.58a3,3,0,0,1,2.57-1.48h5.29A3,3,0,0,1,331.08,241.27Z"/><path class="cls-4" d="M331.08,259.51l2.65,4.58a3,3,0,0,1,0,3l-2.65,4.58a3,3,0,0,1-2.57,1.48h-5.29a3,3,0,0,1-2.57-1.48L318,267.06a3,3,0,0,1,0-3l2.65-4.58a3,3,0,0,1,2.57-1.48h5.29A3,3,0,0,1,331.08,259.51Z"/><path class="cls-3" d="M346.42,214l2.65,4.58a3,3,0,0,1,0,3l-2.65,4.58a3,3,0,0,1-2.57,1.48h-5.29A3,3,0,0,1,336,226.1l-2.65-4.58a3,3,0,0,1,0-3L336,214a3,3,0,0,1,2.57-1.48h5.29A3,3,0,0,1,346.42,214Z"/><path class="cls-3" d="M346.42,232.21l2.65,4.58a3,3,0,0,1,0,3l-2.65,4.58a3,3,0,0,1-2.57,1.48h-5.29a3,3,0,0,1-2.57-1.48l-2.65-4.58a3,3,0,0,1,0-3l2.65-4.58a3,3,0,0,1,2.57-1.48h5.29A3,3,0,0,1,346.42,232.21Z"/><path class="cls-4" d="M361.75,223.14l2.65,4.58a3,3,0,0,1,0,3l-2.65,4.58a3,3,0,0,1-2.57,1.48h-5.29a3,3,0,0,1-2.57-1.48l-2.65-4.58a3,3,0,0,1,0-3l2.65-4.58a3,3,0,0,1,2.57-1.48h5.29A3,3,0,0,1,361.75,223.14Z"/><path class="cls-4" d="M361.75,204.9l2.65,4.58a3,3,0,0,1,0,3L361.75,217a3,3,0,0,1-2.57,1.48h-5.29a3,3,0,0,1-2.57-1.48l-2.65-4.58a3,3,0,0,1,0-3l2.65-4.58a3,3,0,0,1,2.57-1.48h5.29A3,3,0,0,1,361.75,204.9Z"/><path class="cls-3" d="M300.41,204.68l2.65,4.58a3,3,0,0,1,0,3l-2.65,4.58a3,3,0,0,1-2.57,1.48h-5.29a3,3,0,0,1-2.57-1.48l-2.65-4.58a3,3,0,0,1,0-3l2.65-4.58a3,3,0,0,1,2.57-1.48h5.29A3,3,0,0,1,300.41,204.68Z"/><path class="cls-4" d="M300.41,222.92l2.65,4.58a3,3,0,0,1,0,3l-2.65,4.58a3,3,0,0,1-2.57,1.48h-5.29a3,3,0,0,1-2.57-1.48l-2.65-4.58a3,3,0,0,1,0-3l2.65-4.58a3,3,0,0,1,2.57-1.48h5.29A3,3,0,0,1,300.41,222.92Z"/><path class="cls-3" d="M315.74,232.1l2.65,4.58a3,3,0,0,1,0,3l-2.65,4.58a3,3,0,0,1-2.57,1.48h-5.29a3,3,0,0,1-2.57-1.48l-2.65-4.58a3,3,0,0,1,0-3l2.65-4.58a3,3,0,0,1,2.57-1.48h5.29A3,3,0,0,1,315.74,232.1Z"/><circle class="cls-5" cx="269.9" cy="211.49" r="6.65"/><circle class="cls-6" cx="289.05" cy="256.19" r="27.15"/><circle class="cls-7" cx="289.05" cy="256.19" r="22.23"/><path d="M270.06,250.88a19.78,19.78,0,0,1,13.67-13.67,2.53,2.53,0,0,0,1.88-2.42h0a2.5,2.5,0,0,0-3.15-2.43,24.82,24.82,0,0,0-17.25,17.25,2.5,2.5,0,0,0,2.43,3.15h0A2.53,2.53,0,0,0,270.06,250.88Z"/><path d="M294.36,237.21A19.78,19.78,0,0,1,308,250.88a2.53,2.53,0,0,0,2.42,1.88h0a2.5,2.5,0,0,0,2.43-3.15,24.82,24.82,0,0,0-17.25-17.25,2.5,2.5,0,0,0-3.15,2.43h0A2.53,2.53,0,0,0,294.36,237.21Z"/><path d="M283.73,275.18a19.78,19.78,0,0,1-13.67-13.67,2.53,2.53,0,0,0-2.42-1.88h0a2.5,2.5,0,0,0-2.43,3.15A24.82,24.82,0,0,0,282.46,280a2.5,2.5,0,0,0,3.15-2.43h0A2.53,2.53,0,0,0,283.73,275.18Z"/><path d="M308,261.51a19.78,19.78,0,0,1-13.67,13.67,2.53,2.53,0,0,0-1.88,2.42h0a2.5,2.5,0,0,0,3.15,2.43,24.82,24.82,0,0,0,17.25-17.25,2.5,2.5,0,0,0-2.43-3.15h0A2.53,2.53,0,0,0,308,261.51Z"/><circle class="cls-8" cx="289.05" cy="256.19" r="15.58"/><circle class="cls-9" cx="289.05" cy="256.19" r="9.09"/><rect class="cls-10" height="19.6" rx="9.8" ry="9.8" width="19.6" x="313.17" y="181.67"/><rect class="cls-11" height="19.6" rx="9.8" ry="9.8" transform="translate(554.8 -131.5) rotate(90)" width="19.6" x="333.35" y="201.85"/><rect class="cls-12" height="19.6" rx="9.8" ry="9.8" transform="translate(645.95 463.66) rotate(180)" width="19.6" x="313.17" y="222.03"/><rect class="cls-13" height="19.6" rx="9.8" ry="9.8" transform="translate(91.15 514.45) rotate(-90)" width="19.6" x="293" y="201.85"/><line class="cls-14" x1="212.32" x2="204.81" y1="159.96" y2="174.08"/><line class="cls-14" x1="287.68" x2="295.19" y1="159.96" y2="174.08"/><circle class="cls-15" cx="250.08" cy="177.46" r="11.18"/><path class="cls-16" d="M253.52,170.49,243.11,180.9c-2.28,2.28,1.26,5.81,3.54,3.54L257.06,174c2.28-2.28-1.26-5.81-3.54-3.54Z"/><path class="cls-16" d="M257.06,180.9l-10.41-10.41c-2.28-2.28-5.81,1.26-3.54,3.54l10.41,10.41c2.28,2.28,5.81-1.26,3.54-3.54Z"/><circle class="cls-17" cx="250.08" cy="177.46" r="13.01"/><path d="M280.07,290.87a12.54,12.54,0,0,0-8.87-3.67H228.8a12.54,12.54,0,0,0-8.87,3.67l-6.82,6.82h73.76Z"/><path class="cls-18" d="M250.21,222.07h0a2.89,2.89,0,0,1,2.63,1.68l4.79,10.38a2.68,2.68,0,0,1-2.43,3.8h-2.5a1.49,1.49,0,0,1-1.07-.46h0A1.49,1.49,0,0,1,252.7,235h1.72l-3.91-8.67-5,10.64a1.76,1.76,0,0,1-1.59,1h0a1.76,1.76,0,0,1-1.6-2.48l5.29-11.68A2.89,2.89,0,0,1,250.21,222.07Z"/><circle class="cls-18" cx="229.25" cy="292.44" r="1.99"/><circle class="cls-18" cx="235.18" cy="292.44" r="1.99"/><circle class="cls-15" cx="241.11" cy="292.44" r="1.99"/><circle class="cls-15" cx="247.04" cy="292.44" r="1.99"/><circle class="cls-15" cx="252.96" cy="292.44" r="1.99"/><circle class="cls-15" cx="258.89" cy="292.44" r="1.99"/><circle class="cls-15" cx="264.82" cy="292.44" r="1.99"/><circle class="cls-15" cx="270.75" cy="292.44" r="1.99"/><circle class="cls-19" cx="248.17" cy="249.03" r="1.34"/><circle class="cls-19" cx="252.8" cy="253.66" r="1.34"/><circle class="cls-19" cx="248.17" cy="253.66" r="1.34"/><circle class="cls-19" cx="248.17" cy="258.3" r="1.34"/><path class="cls-3" d="M185.4,244.47l2.5,4.33a3.21,3.21,0,0,1,0,3.21l-2.5,4.33a3.21,3.21,0,0,1-2.78,1.61h-5a3.21,3.21,0,0,1-2.78-1.61l-2.5-4.33a3.21,3.21,0,0,1,0-3.21l2.5-4.33a3.21,3.21,0,0,1,2.78-1.61h5A3.21,3.21,0,0,1,185.4,244.47Z"/><path class="cls-3" d="M200.24,235.79l2.5,4.33a3.21,3.21,0,0,1,0,3.21l-2.5,4.33a3.21,3.21,0,0,1-2.78,1.61h-5a3.21,3.21,0,0,1-2.78-1.61l-2.5-4.33a3.21,3.21,0,0,1,0-3.21l2.5-4.33a3.21,3.21,0,0,1,2.78-1.61h5A3.21,3.21,0,0,1,200.24,235.79Z"/><path class="cls-4" d="M215.08,227.11l2.5,4.33a3.21,3.21,0,0,1,0,3.21l-2.5,4.33a3.21,3.21,0,0,1-2.78,1.61h-5a3.21,3.21,0,0,1-2.78-1.61l-2.5-4.33a3.21,3.21,0,0,1,0-3.21l2.5-4.33a3.21,3.21,0,0,1,2.78-1.61h5A3.21,3.21,0,0,1,215.08,227.11Z"/><path class="cls-3" d="M215.08,209.76l2.5,4.33a3.21,3.21,0,0,1,0,3.21l-2.5,4.33a3.21,3.21,0,0,1-2.78,1.61h-5a3.21,3.21,0,0,1-2.78-1.61l-2.5-4.33a3.21,3.21,0,0,1,0-3.21l2.5-4.33a3.21,3.21,0,0,1,2.78-1.61h5A3.21,3.21,0,0,1,215.08,209.76Z"/><path class="cls-4" d="M229.83,201.08l2.5,4.33a3.21,3.21,0,0,1,0,3.21l-2.5,4.33a3.21,3.21,0,0,1-2.78,1.61h-5a3.21,3.21,0,0,1-2.78-1.61l-2.5-4.33a3.21,3.21,0,0,1,0-3.21l2.5-4.33a3.21,3.21,0,0,1,2.78-1.61h5A3.21,3.21,0,0,1,229.83,201.08Z"/><path class="cls-4" d="M185.4,261.56l2.5,4.33a3.21,3.21,0,0,1,0,3.21l-2.5,4.33a3.21,3.21,0,0,1-2.78,1.61h-5a3.21,3.21,0,0,1-2.78-1.61l-2.5-4.33a3.21,3.21,0,0,1,0-3.21l2.5-4.33a3.21,3.21,0,0,1,2.78-1.61h5A3.21,3.21,0,0,1,185.4,261.56Z"/><circle class="cls-5" cx="230.1" cy="211.49" r="6.65"/><circle class="cls-6" cx="213.12" cy="258.93" r="24.01"/><path class="cls-20" d="M226.05,252.87h-6.87V246a6.06,6.06,0,0,0-12.12,0v6.87h-6.87a6.06,6.06,0,0,0,0,12.12h6.87v6.87a6.06,6.06,0,0,0,12.12,0V265h6.87a6.06,6.06,0,1,0,0-12.12Z"/><circle class="cls-6" cx="177.02" cy="211.65" r="27.15"/><circle class="cls-7" cx="177.02" cy="211.65" r="22.23"/><path d="M158,206.33a19.78,19.78,0,0,1,13.67-13.67,2.53,2.53,0,0,0,1.88-2.42h0a2.5,2.5,0,0,0-3.15-2.43,24.82,24.82,0,0,0-17.25,17.25,2.5,2.5,0,0,0,2.43,3.15h0A2.53,2.53,0,0,0,158,206.33Zm24.3-13.67A19.78,19.78,0,0,1,196,206.33a2.53,2.53,0,0,0,2.42,1.88h0a2.5,2.5,0,0,0,2.43-3.15,24.82,24.82,0,0,0-17.25-17.25,2.5,2.5,0,0,0-3.15,2.43h0A2.53,2.53,0,0,0,182.34,192.67Zm-10.63,38A19.78,19.78,0,0,1,158,217a2.53,2.53,0,0,0-2.42-1.88h0a2.5,2.5,0,0,0-2.43,3.15,24.82,24.82,0,0,0,17.25,17.25,2.5,2.5,0,0,0,3.15-2.43h0A2.53,2.53,0,0,0,171.71,230.63ZM196,217a19.78,19.78,0,0,1-13.67,13.67,2.53,2.53,0,0,0-1.88,2.42h0a2.5,2.5,0,0,0,3.15,2.43,24.82,24.82,0,0,0,17.25-17.25,2.5,2.5,0,0,0-2.43-3.15h0A2.53,2.53,0,0,0,196,217Z"/><circle class="cls-8" cx="177.02" cy="211.65" r="15.58"/><circle class="cls-9" cx="177.02" cy="211.65" r="9.09"/><path class="cls-18" d="M313.08,176l3.51-3a.52.52,0,0,1,.84.3l.82,4.52a.52.52,0,0,1-.68.58l-4.32-1.55A.52.52,0,0,1,313.08,176Z"/><path class="cls-18" d="M334.59,183.57l3.51-3a.52.52,0,0,1,.84.3l.82,4.52a.52.52,0,0,1-.68.58l-4.32-1.55A.52.52,0,0,1,334.59,183.57Z"/><path class="cls-18" d="M137.64,189.42l8.16-3a1.88,1.88,0,0,1,2.37,2.5l-7.09,16.6a2.65,2.65,0,0,0,.39,2.73l1.46,1.78a4.58,4.58,0,0,1,.84,4.26l-23.51,76.5a1.43,1.43,0,0,1-2.3.66l-9.45-8.13,9.71-44.54Z"/><path class="cls-18" d="M121.48,291.47l11.07-36a1.23,1.23,0,0,1,2-.53l30,28.94a4.51,4.51,0,0,1,1.38,3.25l0,23.28a.87.87,0,0,1-1.49.62l-25.69-25.37a1.68,1.68,0,0,0-1.59-.43l-.7.18,30.7,30-12.31,14.69-18.75-17.85a2.79,2.79,0,0,1-.78-2.71h0a1.32,1.32,0,0,0-.35-1.27l-12.33-12.22A4.59,4.59,0,0,1,121.48,291.47Z"/><path class="cls-18" d="M121,299.35l31.39,30.51-12.85,14.58L115,319.64a3.65,3.65,0,0,1-.9-3.62L119,299.86A1.19,1.19,0,0,1,121,299.35Z"/><path class="cls-7" d="M379.18,299.35l-31.39,30.51,12.85,14.58,24.5-24.81A3.65,3.65,0,0,0,386,316l-4.88-16.16A1.19,1.19,0,0,0,379.18,299.35Z"/><circle cx="135.27" cy="287.78" r="1.11" transform="translate(-163.87 179.94) rotate(-45)"/><circle cx="137.51" cy="290.01" r="1.11" transform="translate(-164.8 182.18) rotate(-45)"/><circle cx="139.74" cy="292.25" r="1.11" transform="translate(-165.72 184.41) rotate(-45)"/><circle cx="141.97" cy="294.48" r="1.11" transform="translate(-166.65 186.64) rotate(-45)"/><circle cx="144.21" cy="296.71" r="1.11" transform="translate(-167.57 188.88) rotate(-45)"/><circle cx="146.44" cy="298.95" r="1.11" transform="translate(-168.5 191.11) rotate(-45)"/><circle cx="148.67" cy="301.18" r="1.11" transform="translate(-169.42 193.34) rotate(-45)"/><circle cx="150.91" cy="303.42" r="1.11" transform="translate(-170.35 195.58) rotate(-45)"/><circle cx="153.14" cy="305.65" r="1.11" transform="translate(-171.27 197.81) rotate(-45)"/><circle cx="139.63" cy="283.43" r="1.11" transform="translate(-159.52 181.75) rotate(-45)"/><circle cx="141.86" cy="285.66" r="1.11" transform="translate(-160.44 183.98) rotate(-45)"/><circle cx="144.1" cy="287.89" r="1.11" transform="translate(-161.37 186.21) rotate(-45)"/><circle cx="146.33" cy="290.13" r="1.11" transform="translate(-162.29 188.45) rotate(-45)"/><circle cx="148.56" cy="292.36" r="1.11" transform="translate(-163.22 190.68) rotate(-45)"/><circle cx="150.8" cy="294.59" r="1.11" transform="translate(-164.14 192.91) rotate(-45)"/><circle cx="153.03" cy="296.83" r="1.11" transform="translate(-165.07 195.15) rotate(-45)"/><circle cx="155.26" cy="299.06" r="1.11" transform="translate(-165.99 197.38) rotate(-45)"/><circle cx="157.5" cy="301.29" r="1.11" transform="translate(-166.92 199.61) rotate(-45)"/><circle class="cls-21" cx="142.29" cy="280.77" r="1.11" transform="translate(-156.86 182.85) rotate(-45)"/><circle class="cls-21" cx="144.52" cy="283" r="1.11" transform="translate(-157.78 185.08) rotate(-45)"/><circle class="cls-21" cx="146.75" cy="285.23" r="1.11" transform="translate(-158.71 187.31) rotate(-45)"/><circle class="cls-21" cx="148.99" cy="287.47" r="1.11" transform="translate(-159.63 189.55) rotate(-45)"/><circle class="cls-21" cx="151.22" cy="289.7" r="1.11" transform="translate(-160.56 191.78) rotate(-45)"/><circle class="cls-21" cx="153.45" cy="291.93" r="1.11" transform="translate(-161.48 194.01) rotate(-45)"/><circle class="cls-21" cx="155.69" cy="294.17" r="1.11" transform="translate(-162.41 196.25) rotate(-45)"/><circle class="cls-21" cx="157.92" cy="296.4" r="1.11" transform="translate(-163.33 198.48) rotate(-45)"/><circle class="cls-21" cx="160.15" cy="298.64" r="1.11" transform="translate(-164.26 200.71) rotate(-45)"/><path class="cls-7" d="M167.15,288.11v21.11a.7.7,0,0,0,1.2.5l4.25-4.25a.66.66,0,0,0-.46-1.12h-1.28a.67.67,0,0,1-.67-.67V290.29a2.26,2.26,0,0,0-.67-1.61l-1.11-1.1A.74.74,0,0,0,167.15,288.11Z"/><path class="cls-7" d="M138.78,242.59l7.69-25.24a2,2,0,0,0-.51-2h0a.64.64,0,0,0-1.07.26l-10.75,34.5a2.6,2.6,0,0,0,.66,2.63l7.72,7.59a1.57,1.57,0,0,0,2.26-.07l4.07-4.53a1.57,1.57,0,0,0-.07-2.17l-9.61-9.37A1.56,1.56,0,0,1,138.78,242.59Z"/><rect class="cls-7" height="8.3" rx="1.19" ry="1.19" transform="translate(-137.64 187.45) rotate(-45)" width="2.38" x="156.26" y="255.73"/><path class="cls-7" d="M163,271.68l-.38.38-1.3,1.3-.59.59-1.49,1.49-.19.19,7.6,7.6.19-.19,1.49-1.49.59-.59,1.3-1.3.38-.38Zm3.64,8.19-4.23-4.23L163,275l4.23,4.23Z"/><path class="cls-7" d="M160.05,264.05a1.19,1.19,0,0,1-1.68,0l-7.81-7.81-.84.84-.84.84L146.8,260l-1.25,1.25-.43.43,9.5,9.5a1.19,1.19,0,0,0,1.68,0h0a1.19,1.19,0,0,0,0-1.68l-7-7a1.19,1.19,0,0,1,0-1.68l.38-.38a1.19,1.19,0,0,1,1.68,0l6.13,6.13.84.84a1.19,1.19,0,0,0,1.68,0l.84-.84,1.63-1.63a1.19,1.19,0,0,0,0-1.68h0a1.19,1.19,0,0,0-1.68,0Z"/><rect class="cls-7" height="2.38" rx="1.19" ry="1.19" transform="translate(-143.57 192.96) rotate(-45)" width="11.19" x="155.54" y="268.59"/><path class="cls-7" d="M391.24,281.55l-3.73-17.12a3.11,3.11,0,0,0-5.21-1.56L368.85,276a2.19,2.19,0,0,0-.66,1.57h0a1,1,0,0,1-.3.71l-17.66,17.46a3.11,3.11,0,0,0-.92,2.22l0,14.28h0a5.63,5.63,0,0,1-1.45,3.78l-.56-.5.54.52L342.12,322a3.11,3.11,0,0,0-.15,4.16l1.19,1.42a3.11,3.11,0,0,0,4.56.23l31.75-31a1.58,1.58,0,0,0,.47-1,5.41,5.41,0,0,1,1.68-3.67l8.62-7.54A3.11,3.11,0,0,0,391.24,281.55Z"/><path class="cls-7" d="M362.53,189.42,353.16,186a1.32,1.32,0,0,0-1.67,1.76l7.93,18.57a1.22,1.22,0,0,1-.18,1.26l-2.51,3a3.15,3.15,0,0,0-.58,2.93l8.78,28.56a1.36,1.36,0,0,0,2.23.59l11.9-11.22Z"/><path class="cls-7" d="M381.93,238.8l-.46-1.16-13.4,12.62a2.61,2.61,0,0,0-.79,1.47,5.37,5.37,0,0,1-1.57,3l-30.94,29.91a1.87,1.87,0,0,0-.57,1.35l0,17.72a2.25,2.25,0,0,1-.58,1.51l-4,4.43,3.7,5.42-.35.35,3.18,3.79.49.71.06-.05,2.47,2.95,7.56-7.83a4.13,4.13,0,0,0,1.06-2.77l0-15.58a5.28,5.28,0,0,1,1.6-3.79h0l36.53-35.64Z"/><path class="cls-22" d="M378.77,234.58,366.7,246a1,1,0,0,0-.28,1h0a1,1,0,0,0,1.68.44l12.07-11.37a1,1,0,0,0,.25-1.12h0A1,1,0,0,0,378.77,234.58Z"/><path class="cls-17" d="M360.11,184.52a11.25,11.25,0,0,0-6.63-5.92l-38.33-12.83a15.56,15.56,0,0,0-16.66,4.52l-19.94,22.85a6.56,6.56,0,0,1-4.94,2.25H226.39a6.56,6.56,0,0,1-4.94-2.25L201.5,170.29a15.56,15.56,0,0,0-16.66-4.52L146.51,178.6a11.25,11.25,0,0,0-6.62,5.92c-11.67,25-66.2,148.77-9.9,162a10.22,10.22,0,0,0,9.54-2.75l40.54-40.54a18.82,18.82,0,0,1,13.31-5.51H306.62a18.82,18.82,0,0,1,13.31,5.51l40.54,40.54a10.22,10.22,0,0,0,9.54,2.75C426.32,333.28,371.79,209.55,360.11,184.52Z"/><path class="cls-22" d="M336.59,280.11,365.08,253a3.17,3.17,0,0,0,1-2.35l0-2.17a.73.73,0,0,0-1.23-.52l-19.08,18a1.2,1.2,0,0,1-1.66,0l-.51-.5a2.2,2.2,0,0,0-3.51.64l-5.83,12.31A1.51,1.51,0,0,0,336.59,280.11Z"/><path class="cls-23" d="M347.79,289.24V276.71a1.81,1.81,0,0,1,.53-1.28l4.76-4.76a.62.62,0,0,1,.9,0l6.17,6.94a.62.62,0,0,1,0,.85l-11.3,11.18A.61.61,0,0,1,347.79,289.24Z"/><path class="cls-23" d="M364.19,273.74,358,266.8a.62.62,0,0,0-.9,0l-1.75,1.75a.74.74,0,0,0,0,1l6,6.78a.74.74,0,0,0,1.07,0l1.78-1.76A.62.62,0,0,0,364.19,273.74Z"/><path class="cls-23" d="M368.08,269.89l-6.17-6.94a.62.62,0,0,0-.9,0l-1.75,1.75a.74.74,0,0,0,0,1l6,6.78a.74.74,0,0,0,1.07,0l1.78-1.76A.62.62,0,0,0,368.08,269.89Z"/><path class="cls-23" d="M372,266l-6.17-6.94a.62.62,0,0,0-.9,0l-1.75,1.75a.74.74,0,0,0,0,1l6,6.78a.74.74,0,0,0,1.07,0l1.78-1.76A.62.62,0,0,0,372,266Z"/></g></svg>